<svg xmlns="http://www.w3.org/2000/svg" xmlns:xlink="http://www.w3.org/1999/xlink" version="1.1" data-diagram-type="CLASS" style="width:1894px;height:693px;background:#FFFFFF;" width="1894px" height="693px" viewBox="0 0 1894 693" zoomAndPan="magnify" preserveAspectRatio="none" contentStyleType="text/css"><?plantuml 1.2026.7?><defs/><g font-family="sans-serif" lengthAdjust="spacing"><g class="title" data-source-line="6"><text x="839.921" y="22.995" fill="#000" font-size="14" textLength="207.197" font-weight="700">BIM v1 Dialect metamodel</text></g><!--class Dialect--><g class="entity" data-qualified-name="Dialect" id="ent0001" data-source-line="26"><rect x="1301.77" y="44.297" width="246.315" height="97.156" fill="#FEF3C7" style="stroke:#B45309;stroke-width:0.5;" rx="2.5" ry="2.5"/><text x="1397.359" y="60.436" fill="#000" font-size="12" textLength="55.137" font-style="italic">«dialect»</text><text x="1400.458" y="76.261" fill="#000" font-size="14" textLength="48.938">Dialect</text><line x1="1302.77" y1="84.563" x2="1547.085" y2="84.563" style="stroke:#B45309;stroke-width:0.5;"/><text x="1307.77" y="101.558" fill="#000" font-size="14" textLength="167.487">+apiVersion = "bim/v1"</text><text x="1307.77" y="117.854" fill="#000" font-size="14" textLength="123.936">+kind = "Dialect"</text><text x="1307.77" y="134.151" fill="#000" font-size="14" textLength="234.315">+publicId: VersionedId {derived}</text></g><!--class ManifestMetadata--><g class="entity" data-qualified-name="ManifestMetadata" id="ent0002" data-source-line="32"><rect x="1588.83" y="201.447" width="290.209" height="146.047" fill="#FEF3C7" style="stroke:#B45309;stroke-width:0.5;" rx="2.5" ry="2.5"/><text x="1706.366" y="217.586" fill="#000" font-size="12" textLength="55.137" font-style="italic">«dialect»</text><text x="1670.914" y="233.411" fill="#000" font-size="14" textLength="126.041">ManifestMetadata</text><line x1="1589.83" y1="241.712" x2="1878.039" y2="241.712" style="stroke:#B45309;stroke-width:0.5;"/><text x="1594.83" y="258.708" fill="#000" font-size="14" textLength="141.859">+namespace: string</text><text x="1594.83" y="275.004" fill="#000" font-size="14" textLength="101.903">+name: Name</text><text x="1594.83" y="291.301" fill="#000" font-size="14" textLength="127.258">+version: SemVer</text><text x="1594.83" y="307.598" fill="#000" font-size="14" textLength="181.016">+description: string [0..1]</text><text x="1594.83" y="323.895" fill="#000" font-size="14" textLength="241.972">+labels: Map&lt;string,string> [0..1]</text><text x="1594.83" y="340.192" fill="#000" font-size="14" textLength="278.209">+annotations: Map&lt;string,JSON> [0..1]</text></g><!--class DialectSpec--><g class="entity" data-qualified-name="DialectSpec" id="ent0003" data-source-line="41"><rect x="938.95" y="234.047" width="355.95" height="80.859" fill="#FEF3C7" style="stroke:#B45309;stroke-width:0.5;" rx="2.5" ry="2.5"/><text x="1089.357" y="250.186" fill="#000" font-size="12" textLength="55.137" font-style="italic">«dialect»</text><text x="1075.414" y="266.011" fill="#000" font-size="14" textLength="83.022">DialectSpec</text><line x1="939.95" y1="274.312" x2="1293.9" y2="274.312" style="stroke:#B45309;stroke-width:0.5;"/><text x="944.95" y="291.308" fill="#000" font-size="14" textLength="343.95">+compatibleProfiles: VersionedId [1..*] {unique}</text><text x="944.95" y="307.604" fill="#000" font-size="14" textLength="270.929">+extensions: Map&lt;string,JSON> [0..1]</text></g><!--class ResourceType--><g class="entity" data-qualified-name="ResourceType" id="ent0004" data-source-line="46"><rect x="264.54" y="407.497" width="218.773" height="129.75" fill="#FEF3C7" style="stroke:#B45309;stroke-width:0.5;" rx="2.5" ry="2.5"/><text x="346.358" y="423.636" fill="#000" font-size="12" textLength="55.137" font-style="italic">«dialect»</text><text x="324.188" y="439.461" fill="#000" font-size="14" textLength="99.477">ResourceType</text><line x1="265.54" y1="447.762" x2="482.313" y2="447.762" style="stroke:#B45309;stroke-width:0.5;"/><text x="270.54" y="464.758" fill="#000" font-size="14" textLength="135.01">+apiVersion: string</text><text x="270.54" y="481.054" fill="#000" font-size="14" textLength="91.957">+kind: Name</text><text x="270.54" y="497.351" fill="#000" font-size="14" textLength="206.773">+roles: Name [1..*] {unique}</text><text x="270.54" y="513.648" fill="#000" font-size="14" textLength="139.029">+mediaType: string</text><text x="270.54" y="529.945" fill="#000" font-size="14" textLength="172.013">+schemaDigest: sha256</text></g><!--class XMLRootQName--><g class="entity" data-qualified-name="XMLRootQName" id="ent0005" data-source-line="54"><rect x="7" y="597.247" width="153.859" height="80.859" fill="#FEF3C7" style="stroke:#B45309;stroke-width:0.5;" rx="2.5" ry="2.5"/><text x="56.361" y="613.386" fill="#000" font-size="12" textLength="55.137" font-style="italic">«dialect»</text><text x="26.86" y="629.211" fill="#000" font-size="14" textLength="114.14">XMLRootQName</text><line x1="8" y1="637.512" x2="159.859" y2="637.512" style="stroke:#B45309;stroke-width:0.5;"/><text x="13" y="654.508" fill="#000" font-size="14" textLength="141.859">+namespace: string</text><text x="13" y="670.804" fill="#000" font-size="14" textLength="136.124">+localName: Name</text></g><!--class ExtensionPoint--><g class="entity" data-qualified-name="ExtensionPoint" id="ent0006" data-source-line="59"><rect x="916.04" y="431.947" width="195.784" height="80.859" fill="#FEF3C7" style="stroke:#B45309;stroke-width:0.5;" rx="2.5" ry="2.5"/><text x="986.364" y="448.086" fill="#000" font-size="12" textLength="55.137" font-style="italic">«dialect»</text><text x="961.938" y="463.911" fill="#000" font-size="14" textLength="103.988">ExtensionPoint</text><line x1="917.04" y1="472.213" x2="1110.824" y2="472.213" style="stroke:#B45309;stroke-width:0.5;"/><text x="922.04" y="489.208" fill="#000" font-size="14" textLength="183.784">+pointer: RFC6901Pointer</text><text x="922.04" y="505.504" fill="#000" font-size="14" textLength="172.013">+schemaDigest: sha256</text></g><!--class ExtensionTarget--><g class="entity" data-qualified-name="ExtensionTarget" id="ent0007" data-source-line="64"><rect x="680.42" y="597.247" width="147.01" height="80.859" fill="#FEF3C7" style="stroke:#B45309;stroke-width:0.5;" rx="2.5" ry="2.5"/><text x="726.357" y="613.386" fill="#000" font-size="12" textLength="55.137" font-style="italic">«dialect»</text><text x="696.623" y="629.211" fill="#000" font-size="14" textLength="114.604">ExtensionTarget</text><line x1="681.42" y1="637.512" x2="826.43" y2="637.512" style="stroke:#B45309;stroke-width:0.5;"/><text x="686.42" y="654.508" fill="#000" font-size="14" textLength="135.01">+apiVersion: string</text><text x="686.42" y="670.804" fill="#000" font-size="14" textLength="91.957">+kind: Name</text></g><!--class IRFeature--><g class="entity" data-qualified-name="IRFeature" id="ent0008" data-source-line="69"><rect x="1186.57" y="431.947" width="146.723" height="80.859" fill="#DCFCE7" style="stroke:#15803D;stroke-width:0.5;" rx="2.5" ry="2.5"/><text x="1246.587" y="448.086" fill="#000" font-size="12" textLength="26.689" font-style="italic">«IR»</text><text x="1226.015" y="463.911" fill="#000" font-size="14" textLength="67.833">IRFeature</text><line x1="1187.57" y1="472.213" x2="1332.293" y2="472.213" style="stroke:#15803D;stroke-width:0.5;"/><text x="1192.57" y="489.208" fill="#000" font-size="14" textLength="134.723">+dimension: Name</text><text x="1192.57" y="505.504" fill="#000" font-size="14" textLength="99.326">+value: string</text></g><!--class AdapterDescriptor--><g class="entity" data-qualified-name="AdapterDescriptor" id="ent0009" data-source-line="74"><rect x="1368.14" y="423.797" width="173.588" height="97.156" fill="#FFEDD5" style="stroke:#C2410C;stroke-width:0.5;" rx="2.5" ry="2.5"/><text x="1417.999" y="439.936" fill="#000" font-size="12" textLength="73.869" font-style="italic">«execution»</text><text x="1390.676" y="455.761" fill="#000" font-size="14" textLength="128.516">AdapterDescriptor</text><line x1="1369.14" y1="464.062" x2="1540.728" y2="464.062" style="stroke:#C2410C;stroke-width:0.5;"/><text x="1374.14" y="481.058" fill="#000" font-size="14" textLength="73.862">+id: string</text><text x="1374.14" y="497.354" fill="#000" font-size="14" textLength="112.362">+version: string</text><text x="1374.14" y="513.651" fill="#000" font-size="14" textLength="161.588">+binaryDigest: sha256</text></g><!--class ProfileRole--><g class="entity" data-qualified-name="ProfileRole" id="ent0010" data-source-line="80"><rect x="195.98" y="605.397" width="113.903" height="64.563" fill="#EDE9FE" style="stroke:#6D28D9;stroke-width:0.5;" rx="2.5" ry="2.5"/><text x="226.441" y="621.536" fill="#000" font-size="12" textLength="52.98" font-style="italic">«profile»</text><text x="215.252" y="637.361" fill="#000" font-size="14" textLength="75.359">Profile role</text><line x1="196.98" y1="645.662" x2="308.883" y2="645.662" style="stroke:#6D28D9;stroke-width:0.5;"/><text x="201.98" y="662.658" fill="#000" font-size="14" textLength="101.903">+name: Name</text></g><!--class ProfileDimension--><g class="entity" data-qualified-name="ProfileDimension" id="ent0011" data-source-line="84"><rect x="1200.14" y="597.247" width="199.58" height="80.859" fill="#EDE9FE" style="stroke:#6D28D9;stroke-width:0.5;" rx="2.5" ry="2.5"/><text x="1273.44" y="613.386" fill="#000" font-size="12" textLength="52.98" font-style="italic">«profile»</text><text x="1203.14" y="629.211" fill="#000" font-size="14" textLength="193.58">Profile capability dimension</text><line x1="1201.14" y1="637.512" x2="1398.72" y2="637.512" style="stroke:#6D28D9;stroke-width:0.5;"/><text x="1206.14" y="654.508" fill="#000" font-size="14" textLength="101.903">+name: Name</text><text x="1206.14" y="670.804" fill="#000" font-size="14" textLength="158.635">+openValues: boolean</text></g><g class="entity" data-qualified-name="GMN22" id="ent0023" data-source-line="101"><path d="M1582.74,72.737 L1582.74,89.107 L1548.34,93.107 L1582.74,97.107 L1582.74,113.002 A0,0 0 0 0 1582.74,113.002 L1793.129,113.002 A0,0 0 0 0 1793.129,113.002 L1793.129,82.737 L1783.129,72.737 L1582.74,72.737 A0,0 0 0 0 1582.74,72.737" style="stroke:#181818;stroke-width:0.5;" fill="#FEFFDD"/><path d="M1783.129,72.737 L1783.129,82.737 L1793.129,82.737 L1783.129,72.737" style="stroke:#181818;stroke-width:0.5;" fill="#FEFFDD"/><text x="1588.74" y="89.804" fill="#000" font-size="13" textLength="189.389">publicId = metadata.name +</text><text x="1588.74" y="104.937" fill="#000" font-size="13" textLength="136.011">"/v" + SemVer major</text></g><g class="entity" data-qualified-name="GMN25" id="ent0026" data-source-line="106"><path d="M1330.18,239.207 L1330.18,282.107 L1295.12,286.107 L1330.18,290.107 L1330.18,309.738 A0,0 0 0 0 1330.18,309.738 L1553.67,309.738 A0,0 0 0 0 1553.67,309.738 L1553.67,249.207 L1543.67,239.207 L1330.18,239.207 A0,0 0 0 0 1330.18,239.207" style="stroke:#181818;stroke-width:0.5;" fill="#FEFFDD"/><path d="M1543.67,239.207 L1543.67,249.207 L1553.67,249.207 L1543.67,239.207" style="stroke:#181818;stroke-width:0.5;" fill="#FEFFDD"/><text x="1336.18" y="256.274" fill="#000" font-size="13" textLength="194.105">At least one resourceType OR</text><text x="1336.18" y="271.407" fill="#000" font-size="13" textLength="202.49">one extensionPoint is required.</text><text x="1336.18" y="286.539" fill="#000" font-size="13" textLength="195.603">Every compatible Profile must</text><text x="1336.18" y="301.672" fill="#000" font-size="13" textLength="132.641">already be installed.</text></g><g class="entity" data-qualified-name="GMN28" id="ent0029" data-source-line="113"><path d="M344.39,602.407 L344.39,672.938 A0,0 0 0 0 344.39,672.938 L645.468,672.938 A0,0 0 0 0 645.468,672.938 L645.468,612.407 L635.468,602.407 L417.85,602.407 L413.85,537.707 L409.85,602.407 L344.39,602.407 A0,0 0 0 0 344.39,602.407" style="stroke:#181818;stroke-width:0.5;" fill="#FEFFDD"/><path d="M635.468,602.407 L635.468,612.407 L645.468,612.407 L635.468,602.407" style="stroke:#181818;stroke-width:0.5;" fill="#FEFFDD"/><text x="350.39" y="619.474" fill="#000" font-size="13" textLength="280.078">Identity = apiVersion + kind + mediaType.</text><text x="350.39" y="634.607" fill="#000" font-size="13" textLength="268.48">Claims must be unambiguous per Profile.</text><text x="350.39" y="649.739" fill="#000" font-size="13" textLength="225.374">XML media types require xmlRoot;</text><text x="350.39" y="664.872" fill="#000" font-size="13" textLength="155.53">non-XML types forbid it.</text></g><g class="entity" data-qualified-name="GMN31" id="ent0032" data-source-line="120"><path d="M862.25,609.977 L862.25,665.375 A0,0 0 0 0 862.25,665.375 L1165.6,665.375 A0,0 0 0 0 1165.6,665.375 L1165.6,619.977 L1155.6,609.977 L1050.56,609.977 L1046.56,513.237 L1042.56,609.977 L862.25,609.977 A0,0 0 0 0 862.25,609.977" style="stroke:#181818;stroke-width:0.5;" fill="#FEFFDD"/><path d="M1155.6,609.977 L1155.6,619.977 L1165.6,619.977 L1155.6,609.977" style="stroke:#181818;stroke-width:0.5;" fill="#FEFFDD"/><text x="868.25" y="627.044" fill="#000" font-size="13" textLength="282.35">target + pointer identifies the payload site.</text><text x="868.25" y="642.177" fill="#000" font-size="13" textLength="263.275">The exact payload validator and lowerer</text><text x="868.25" y="657.309" fill="#000" font-size="13" textLength="236.736">must be deployed with the contract.</text></g><g class="entity" data-qualified-name="GMN34" id="ent0035" data-source-line="126"><path d="M1434.67,617.547 L1434.67,657.813 L1753.191,657.813 L1753.191,627.547 L1743.191,617.547 L1434.67,617.547" style="stroke:#181818;stroke-width:0.5;" fill="#FEFFDD"/><path d="M1743.191,617.547 L1743.191,627.547 L1753.191,627.547 L1743.191,617.547" style="stroke:#181818;stroke-width:1;" fill="#FEFFDD"/><text x="1440.67" y="634.614" fill="#000" font-size="13" textLength="230.204">dimension must exist in the Profile.</text><text x="1440.67" y="649.747" fill="#000" font-size="13" textLength="297.521">value must be listed when openValues=false.</text></g><!--reverse link Dialect to ManifestMetadata--><g class="link" data-entity-1="ent0001" data-entity-2="ent0002" id="lnk12" data-source-line="89" data-link-type="composition"><path d="M1560.22,127.107 C1629.81,127.107 1690.97,127.107 1690.97,127.107 C1690.97,127.107 1690.97,164.237 1690.97,201.227" style="stroke:#64748B;stroke-width:1;" fill="none" id="Dialect-backto-ManifestMetadata" codeLine="89"/><polygon points="1548.22,127.107,1554.22,131.107,1560.22,127.107,1554.22,123.107,1548.22,127.107" fill="#64748B" style="stroke:#64748B;stroke-width:1;stroke-linejoin:miter;stroke-miterlimit:10;"/><text x="1592.65" y="140.174" fill="#000" font-size="13" textLength="63.007">metadata</text><text x="1678.36" y="190.352" fill="#000" font-size="13">1</text></g><!--reverse link Dialect to DialectSpec--><g class="link" data-entity-1="ent0001" data-entity-2="ent0003" id="lnk13" data-source-line="90" data-link-type="composition"><path d="M1315.98,153.657 C1315.98,203.957 1315.98,263.107 1315.98,263.107 C1315.98,263.107 1307.92,263.107 1295.05,263.107" style="stroke:#64748B;stroke-width:1;" fill="none" id="Dialect-backto-DialectSpec" codeLine="90"/><polygon points="1315.98,141.657,1311.98,147.657,1315.98,153.657,1319.98,147.657,1315.98,141.657" fill="#64748B" style="stroke:#64748B;stroke-width:1;stroke-linejoin:miter;stroke-miterlimit:10;"/><text x="1284.98" y="208.914" fill="#000" font-size="13" textLength="30.17">spec</text><text x="1302.739" y="259.381" fill="#000" font-size="13">1</text></g><!--reverse link DialectSpec to ResourceType--><g class="link" data-entity-1="ent0003" data-entity-2="ent0004" id="lnk14" data-source-line="91" data-link-type="composition"><path d="M996.58,327.057 C996.58,368.917 996.58,416.107 996.58,416.107 C996.58,416.107 662.56,416.107 483.81,416.107" style="stroke:#64748B;stroke-width:1;" fill="none" id="DialectSpec-backto-ResourceType" codeLine="91"/><polygon points="996.58,315.057,992.58,321.057,996.58,327.057,1000.58,321.057,996.58,315.057" fill="#64748B" style="stroke:#64748B;stroke-width:1;stroke-linejoin:miter;stroke-miterlimit:10;"/><text x="629.72" y="412.174" fill="#000" font-size="13" textLength="160.71">resourceTypes {unique}</text><text x="491.208" y="409.292" fill="#000" font-size="13" textLength="23.036">0..*</text></g><!--reverse link DialectSpec to ExtensionPoint--><g class="link" data-entity-1="ent0003" data-entity-2="ent0006" id="lnk15" data-source-line="92" data-link-type="composition"><path d="M1054.2,326.997 C1054.2,361.037 1054.2,397.447 1054.2,431.567" style="stroke:#64748B;stroke-width:1;" fill="none" id="DialectSpec-backto-ExtensionPoint" codeLine="92"/><polygon points="1054.2,314.997,1050.2,320.997,1054.2,326.997,1058.2,320.997,1054.2,314.997" fill="#64748B" style="stroke:#64748B;stroke-width:1;stroke-linejoin:miter;stroke-miterlimit:10;"/><text x="885.2" y="369.344" fill="#000" font-size="13" textLength="168.372">extensionPoints {unique}</text><text x="1035.788" y="420.945" fill="#000" font-size="13" textLength="23.036">0..*</text></g><!--reverse link DialectSpec to IRFeature--><g class="link" data-entity-1="ent0003" data-entity-2="ent0008" id="lnk16" data-source-line="93" data-link-type="composition"><path d="M1222.68,326.997 C1222.68,361.037 1222.68,397.447 1222.68,431.567" style="stroke:#64748B;stroke-width:1;" fill="none" id="DialectSpec-backto-IRFeature" codeLine="93"/><polygon points="1222.68,314.997,1218.68,320.997,1222.68,326.997,1226.68,320.997,1222.68,314.997" fill="#64748B" style="stroke:#64748B;stroke-width:1;stroke-linejoin:miter;stroke-miterlimit:10;"/><text x="1090.68" y="369.344" fill="#000" font-size="13" textLength="131.104">irFeatures {unique}</text><text x="1191.913" y="420.945" fill="#000" font-size="13" textLength="23.036">0..*</text></g><!--reverse link DialectSpec to AdapterDescriptor--><g class="link" data-entity-1="ent0003" data-entity-2="ent0009" id="lnk17" data-source-line="94" data-link-type="composition"><path d="M1258.79,327.237 C1258.79,372.757 1258.79,428.107 1258.79,428.107 C1258.79,428.107 1315.38,428.107 1367.76,428.107" style="stroke:#64748B;stroke-width:1;" fill="none" id="DialectSpec-backto-AdapterDescriptor" codeLine="94"/><polygon points="1258.79,315.237,1254.79,321.237,1258.79,327.237,1262.79,321.237,1258.79,315.237" fill="#64748B" style="stroke:#64748B;stroke-width:1;stroke-linejoin:miter;stroke-miterlimit:10;"/><text x="1259.79" y="422.224" fill="#000" font-size="13" textLength="50.876">adapter</text><text x="1351.936" y="420.731" fill="#000" font-size="13">1</text></g><!--reverse link ResourceType to XMLRootQName--><g class="link" data-entity-1="ent0004" data-entity-2="ent0005" id="lnk18" data-source-line="95" data-link-type="composition"><path d="M252.29,472.107 C170.17,472.107 83.93,472.107 83.93,472.107 C83.93,472.107 83.93,547.717 83.93,596.747" style="stroke:#64748B;stroke-width:1;" fill="none" id="ResourceType-backto-XMLRootQName" codeLine="95"/><polygon points="264.29,472.107,258.29,468.107,252.29,472.107,258.29,476.107,264.29,472.107" fill="#64748B" style="stroke:#64748B;stroke-width:1;stroke-linejoin:miter;stroke-miterlimit:10;"/><text x="56.79" y="468.174" fill="#000" font-size="13" textLength="54.006">xmlRoot</text><text x="58.082" y="586.106" fill="#000" font-size="13" textLength="24.807">0..1</text></g><!--reverse link ExtensionPoint to ExtensionTarget--><g class="link" data-entity-1="ent0006" data-entity-2="ent0007" id="lnk19" data-source-line="96" data-link-type="composition"><path d="M981.3,524.977 C981.3,563.677 981.3,604.107 981.3,604.107 C981.3,604.107 894.14,604.107 827.75,604.107" style="stroke:#64748B;stroke-width:1;" fill="none" id="ExtensionPoint-backto-ExtensionTarget" codeLine="96"/><polygon points="981.3,512.977,977.3,518.977,981.3,524.977,985.3,518.977,981.3,512.977" fill="#64748B" style="stroke:#64748B;stroke-width:1;stroke-linejoin:miter;stroke-miterlimit:10;"/><text x="910.09" y="600.174" fill="#000" font-size="13" textLength="39.755">target</text><text x="835.424" y="597.138" fill="#000" font-size="13">1</text></g><!--link ResourceType to ProfileRole--><g class="link" data-entity-1="ent0004" data-entity-2="ent0010" id="lnk20" data-source-line="97" data-link-type="dependency"><path d="M287.21,537.707 C287.21,560.807 287.21,580.797 287.21,600.017" style="stroke:#64748B;stroke-width:1;stroke-dasharray:7,7;" fill="none" id="ResourceType-to-ProfileRole" codeLine="97"/><polygon points="287.21,605.017,291.21,596.017,287.21,600.017,283.21,596.017,287.21,605.017" fill="#64748B" style="stroke:#64748B;stroke-width:1;stroke-linejoin:miter;stroke-miterlimit:10;"/><text x="214.21" y="567.424" fill="#000" font-size="13" textLength="72.681">role names</text><text x="268.556" y="594.441" fill="#000" font-size="13" textLength="23.036">1..*</text></g><!--link IRFeature to ProfileDimension--><g class="link" data-entity-1="ent0008" data-entity-2="ent0011" id="lnk21" data-source-line="98" data-link-type="dependency"><path d="M1244.52,513.237 C1244.52,538.757 1244.52,566.507 1244.52,591.997" style="stroke:#64748B;stroke-width:1;stroke-dasharray:7,7;" fill="none" id="IRFeature-to-ProfileDimension" codeLine="98"/><polygon points="1244.52,596.997,1248.52,587.997,1244.52,591.997,1240.52,587.997,1244.52,596.997" fill="#64748B" style="stroke:#64748B;stroke-width:1;stroke-linejoin:miter;stroke-miterlimit:10;"/><text x="1136.52" y="551.184" fill="#000" font-size="13" textLength="107.231">dimension/value</text><text x="1226.703" y="586.095" fill="#000" font-size="13">1</text></g><!--link IRFeature to GMN34--><g class="link" data-entity-1="ent0008" data-entity-2="ent0035" id="lnk36" data-source-line="126" data-link-type="association"><path d="M1288.91,512.997 C1288.91,522.097 1288.91,529.107 1288.91,529.107 C1288.91,529.107 1488.2,529.107 1488.2,529.107 C1488.2,529.107 1488.2,585.807 1488.2,617.257" style="stroke:#64748B;stroke-width:1;stroke-dasharray:7,7;" fill="none" id="IRFeature-GMN34"/></g></g></svg>