<svg xmlns="http://www.w3.org/2000/svg" xmlns:xlink="http://www.w3.org/1999/xlink" version="1.1" data-diagram-type="CLASS" style="width:1313px;height:523px;background:#FFFFFF;" width="1313px" height="523px" viewBox="0 0 1313 523" zoomAndPan="magnify" preserveAspectRatio="none" contentStyleType="text/css"><?plantuml 1.2026.7?><defs/><g font-family="sans-serif" lengthAdjust="spacing"><g class="title" data-source-line="1"><text x="502.567" y="22.995" fill="#000" font-size="14" textLength="301.492" font-weight="700">Constraint and expression metamodel</text></g><!--class ConstraintSet--><g class="entity" data-qualified-name="ConstraintSet" id="ent0001" data-source-line="8"><rect x="7" y="284.447" width="127.573" height="48.266" fill="#F1F1F1" style="stroke:#181818;stroke-width:0.5;" rx="2.5" ry="2.5"/><ellipse cx="22" cy="304.58" rx="11" ry="11" fill="#C2C2C2" style="stroke:#181818;stroke-width:1;"/><path d="M24.969,310.22 Q24.391,310.517 23.75,310.658 Q23.109,310.814 22.406,310.814 Q19.906,310.814 18.578,309.173 Q17.266,307.517 17.266,304.392 Q17.266,301.267 18.578,299.611 Q19.906,297.955 22.406,297.955 Q23.109,297.955 23.75,298.111 Q24.406,298.267 24.969,298.564 L24.969,301.283 Q24.344,300.705 23.75,300.439 Q23.156,300.158 22.531,300.158 Q21.188,300.158 20.5,301.236 Q19.813,302.298 19.813,304.392 Q19.813,306.486 20.5,307.564 Q21.188,308.627 22.531,308.627 Q23.156,308.627 23.75,308.361 Q24.344,308.08 24.969,307.502 L24.969,310.22 Z " fill="#000"/><text x="56.324" y="300.586" fill="#000" font-size="12" textLength="54.926" font-style="italic">«source»</text><text x="36" y="316.411" fill="#000" font-size="14" textLength="95.573">ConstraintSet</text><line x1="8" y1="324.713" x2="133.573" y2="324.713" style="stroke:#181818;stroke-width:0.5;"/></g><!--class Constraint--><g class="entity" data-qualified-name="Constraint" id="ent0002" data-source-line="9"><rect x="343.3" y="268.147" width="182.816" height="80.859" fill="#F1F1F1" style="stroke:#181818;stroke-width:0.5;" rx="2.5" ry="2.5"/><ellipse cx="394.166" cy="288.28" rx="11" ry="11" fill="#C2C2C2" style="stroke:#181818;stroke-width:1;"/><path d="M397.135,293.92 Q396.557,294.217 395.916,294.358 Q395.276,294.514 394.572,294.514 Q392.072,294.514 390.744,292.873 Q389.432,291.217 389.432,288.092 Q389.432,284.967 390.744,283.311 Q392.072,281.655 394.572,281.655 Q395.276,281.655 395.916,281.811 Q396.572,281.967 397.135,282.264 L397.135,284.983 Q396.51,284.405 395.916,284.139 Q395.322,283.858 394.697,283.858 Q393.354,283.858 392.666,284.936 Q391.979,285.998 391.979,288.092 Q391.979,290.186 392.666,291.264 Q393.354,292.327 394.697,292.327 Q395.322,292.327 395.916,292.061 Q396.51,291.78 397.135,291.202 L397.135,293.92 Z " fill="#000"/><text x="423.495" y="284.286" fill="#000" font-size="12" textLength="54.926" font-style="italic">«source»</text><text x="414.666" y="300.111" fill="#000" font-size="14" textLength="72.584">Constraint</text><line x1="344.3" y1="308.413" x2="525.116" y2="308.413" style="stroke:#181818;stroke-width:0.5;"/><text x="349.3" y="325.408" fill="#000" font-size="14" textLength="61.646">id: name</text><text x="349.3" y="341.704" fill="#000" font-size="14" textLength="170.816">enforcement: hard | soft</text></g><!--class Expression--><g class="entity" data-qualified-name="Expression" id="ent0003" data-source-line="13"><rect x="812.85" y="284.447" width="108.303" height="48.266" fill="#F1F1F1" style="stroke:#181818;stroke-width:0.5;" rx="2.5" ry="2.5"/><ellipse cx="827.85" cy="304.58" rx="11" ry="11" fill="#CDCDCD" style="stroke:#181818;stroke-width:1;"/><path d="M827.959,299.923 L826.803,305.002 L829.131,305.002 L827.959,299.923 Z M826.475,297.689 L829.459,297.689 L832.819,310.08 L830.366,310.08 L829.6,307.017 L826.319,307.017 L825.569,310.08 L823.131,310.08 L826.475,297.689 Z " fill="#000"/><text x="852.538" y="300.586" fill="#000" font-size="12" textLength="54.926" font-style="italic">«source»</text><text x="841.85" y="316.411" fill="#000" font-size="14" textLength="76.303" font-style="italic">Expression</text><line x1="813.85" y1="324.713" x2="920.153" y2="324.713" style="stroke:#181818;stroke-width:0.5;"/></g><!--class Literal--><g class="entity" data-qualified-name="Literal" id="ent0004" data-source-line="14"><rect x="1120.29" y="44.297" width="101.202" height="64.563" fill="#F1F1F1" style="stroke:#181818;stroke-width:0.5;" rx="2.5" ry="2.5"/><ellipse cx="1143.514" cy="64.43" rx="11" ry="11" fill="#C2C2C2" style="stroke:#181818;stroke-width:1;"/><path d="M1146.483,70.07 Q1145.905,70.367 1145.264,70.508 Q1144.624,70.664 1143.921,70.664 Q1141.421,70.664 1140.092,69.023 Q1138.78,67.367 1138.78,64.242 Q1138.78,61.117 1140.092,59.461 Q1141.421,57.805 1143.921,57.805 Q1144.624,57.805 1145.264,57.961 Q1145.921,58.117 1146.483,58.414 L1146.483,61.133 Q1145.858,60.555 1145.264,60.289 Q1144.671,60.008 1144.046,60.008 Q1142.702,60.008 1142.014,61.086 Q1141.327,62.148 1141.327,64.242 Q1141.327,66.336 1142.014,67.414 Q1142.702,68.477 1144.046,68.477 Q1144.671,68.477 1145.264,68.211 Q1145.858,67.93 1146.483,67.352 L1146.483,70.07 Z " fill="#000"/><text x="1157.342" y="60.436" fill="#000" font-size="12" textLength="54.926" font-style="italic">«source»</text><text x="1162.797" y="76.261" fill="#000" font-size="14" textLength="44.017">Literal</text><line x1="1121.29" y1="84.563" x2="1220.492" y2="84.563" style="stroke:#181818;stroke-width:0.5;"/><text x="1126.29" y="101.558" fill="#000" font-size="14" textLength="89.202">value: scalar</text></g><!--class Path--><g class="entity" data-qualified-name="Path" id="ent0005" data-source-line="17"><rect x="1087.99" y="144.297" width="165.788" height="64.563" fill="#F1F1F1" style="stroke:#181818;stroke-width:0.5;" rx="2.5" ry="2.5"/><ellipse cx="1141.171" cy="164.43" rx="11" ry="11" fill="#C2C2C2" style="stroke:#181818;stroke-width:1;"/><path d="M1144.14,170.07 Q1143.562,170.367 1142.921,170.508 Q1142.281,170.664 1141.577,170.664 Q1139.077,170.664 1137.749,169.023 Q1136.437,167.367 1136.437,164.242 Q1136.437,161.117 1137.749,159.461 Q1139.077,157.805 1141.577,157.805 Q1142.281,157.805 1142.921,157.961 Q1143.577,158.117 1144.14,158.414 L1144.14,161.133 Q1143.515,160.555 1142.921,160.289 Q1142.327,160.008 1141.702,160.008 Q1140.359,160.008 1139.671,161.086 Q1138.984,162.148 1138.984,164.242 Q1138.984,166.336 1139.671,167.414 Q1140.359,168.477 1141.702,168.477 Q1142.327,168.477 1142.921,168.211 Q1143.515,167.93 1144.14,167.352 L1144.14,170.07 Z " fill="#000"/><text x="1159.671" y="160.436" fill="#000" font-size="12" textLength="54.926" font-style="italic">«source»</text><text x="1171.442" y="176.261" fill="#000" font-size="14" textLength="31.384">Path</text><line x1="1088.99" y1="184.563" x2="1252.778" y2="184.563" style="stroke:#181818;stroke-width:0.5;"/><text x="1093.99" y="201.558" fill="#000" font-size="14" textLength="153.788">segments: string[1..*]</text></g><!--class Unary--><g class="entity" data-qualified-name="Unary" id="ent0006" data-source-line="20"><rect x="1108.78" y="244.297" width="124.219" height="64.563" fill="#F1F1F1" style="stroke:#181818;stroke-width:0.5;" rx="2.5" ry="2.5"/><ellipse cx="1142.362" cy="264.43" rx="11" ry="11" fill="#C2C2C2" style="stroke:#181818;stroke-width:1;"/><path d="M1145.331,270.07 Q1144.752,270.367 1144.112,270.508 Q1143.471,270.664 1142.768,270.664 Q1140.268,270.664 1138.94,269.023 Q1137.627,267.367 1137.627,264.242 Q1137.627,261.117 1138.94,259.461 Q1140.268,257.805 1142.768,257.805 Q1143.471,257.805 1144.112,257.961 Q1144.768,258.117 1145.331,258.414 L1145.331,261.133 Q1144.706,260.555 1144.112,260.289 Q1143.518,260.008 1142.893,260.008 Q1141.549,260.008 1140.862,261.086 Q1140.174,262.148 1140.174,264.242 Q1140.174,266.336 1140.862,267.414 Q1141.549,268.477 1142.893,268.477 Q1143.518,268.477 1144.112,268.211 Q1144.706,267.93 1145.331,267.352 L1145.331,270.07 Z " fill="#000"/><text x="1158.491" y="260.436" fill="#000" font-size="12" textLength="54.926" font-style="italic">«source»</text><text x="1165.084" y="276.261" fill="#000" font-size="14" textLength="41.74">Unary</text><line x1="1109.78" y1="284.563" x2="1231.999" y2="284.563" style="stroke:#181818;stroke-width:0.5;"/><text x="1114.78" y="301.558" fill="#000" font-size="14" textLength="112.219">op: not | negate</text></g><!--class Binary--><g class="entity" data-qualified-name="Binary" id="ent0007" data-source-line="23"><rect x="1043.15" y="344.297" width="255.476" height="64.563" fill="#F1F1F1" style="stroke:#181818;stroke-width:0.5;" rx="2.5" ry="2.5"/><ellipse cx="1141.175" cy="364.43" rx="11" ry="11" fill="#C2C2C2" style="stroke:#181818;stroke-width:1;"/><path d="M1144.144,370.07 Q1143.566,370.367 1142.925,370.508 Q1142.284,370.664 1141.581,370.664 Q1139.081,370.664 1137.753,369.023 Q1136.441,367.367 1136.441,364.242 Q1136.441,361.117 1137.753,359.461 Q1139.081,357.805 1141.581,357.805 Q1142.284,357.805 1142.925,357.961 Q1143.581,358.117 1144.144,358.414 L1144.144,361.133 Q1143.519,360.555 1142.925,360.289 Q1142.331,360.008 1141.706,360.008 Q1140.362,360.008 1139.675,361.086 Q1138.987,362.148 1138.987,364.242 Q1138.987,366.336 1139.675,367.414 Q1140.362,368.477 1141.706,368.477 Q1142.331,368.477 1142.925,368.211 Q1143.519,367.93 1144.144,367.352 L1144.144,370.07 Z " fill="#000"/><text x="1159.675" y="360.436" fill="#000" font-size="12" textLength="54.926" font-style="italic">«source»</text><text x="1164.644" y="376.261" fill="#000" font-size="14" textLength="44.987">Binary</text><line x1="1044.15" y1="384.563" x2="1297.626" y2="384.563" style="stroke:#181818;stroke-width:0.5;"/><text x="1049.15" y="401.558" fill="#000" font-size="14" textLength="243.476">op: boolean | compare | arithmetic</text></g><!--class Call--><g class="entity" data-qualified-name="Call" id="ent0008" data-source-line="26"><rect x="1087.53" y="444.297" width="166.718" height="64.563" fill="#F1F1F1" style="stroke:#181818;stroke-width:0.5;" rx="2.5" ry="2.5"/><ellipse cx="1141.176" cy="464.43" rx="11" ry="11" fill="#C2C2C2" style="stroke:#181818;stroke-width:1;"/><path d="M1144.145,470.07 Q1143.567,470.367 1142.926,470.508 Q1142.285,470.664 1141.582,470.664 Q1139.082,470.664 1137.754,469.023 Q1136.442,467.367 1136.442,464.242 Q1136.442,461.117 1137.754,459.461 Q1139.082,457.805 1141.582,457.805 Q1142.285,457.805 1142.926,457.961 Q1143.582,458.117 1144.145,458.414 L1144.145,461.133 Q1143.52,460.555 1142.926,460.289 Q1142.332,460.008 1141.707,460.008 Q1140.363,460.008 1139.676,461.086 Q1138.988,462.148 1138.988,464.242 Q1138.988,466.336 1139.676,467.414 Q1140.363,468.477 1141.707,468.477 Q1142.332,468.477 1142.926,468.211 Q1143.52,467.93 1144.145,467.352 L1144.145,470.07 Z " fill="#000"/><text x="1159.676" y="460.436" fill="#000" font-size="12" textLength="54.926" font-style="italic">«source»</text><text x="1174.072" y="476.261" fill="#000" font-size="14" textLength="26.134">Call</text><line x1="1088.53" y1="484.563" x2="1253.248" y2="484.563" style="stroke:#181818;stroke-width:0.5;"/><text x="1093.53" y="501.558" fill="#000" font-size="14" textLength="154.718">op: approved function</text></g><g class="entity" data-qualified-name="GMN21" id="ent0022" data-source-line="45"><path d="M195.57,384.447 L195.57,424.713 A0,0 0 0 0 195.57,424.713 L673.842,424.713 A0,0 0 0 0 673.842,424.713 L673.842,394.447 L663.842,384.447 L438.71,384.447 L434.71,349.507 L430.71,384.447 L195.57,384.447 A0,0 0 0 0 195.57,384.447" style="stroke:#181818;stroke-width:0.5;" fill="#FAFAFA"/><path d="M663.842,384.447 L663.842,394.447 L673.842,394.447 L663.842,384.447" style="stroke:#181818;stroke-width:0.5;" fill="#FAFAFA"/><text x="201.57" y="401.514" fill="#000" font-size="13" textLength="457.272">A soft constraint requires a finite non-negative penalty and an explicit</text><text x="201.57" y="416.647" fill="#000" font-size="13" textLength="432.383">Optimization penalty reference. Hard constraints have no penalty.</text></g><!--reverse link ConstraintSet to Constraint--><g class="link" data-entity-1="ent0001" data-entity-2="ent0002" id="lnk9" data-source-line="30" data-link-type="composition"><path d="M146.83,308.577 C204.35,308.577 278.01,308.577 342.91,308.577" style="stroke:#181818;stroke-width:1;" fill="none" id="ConstraintSet-backto-Constraint" codeLine="30"/><polygon points="134.83,308.577,140.83,312.577,146.83,308.577,140.83,304.577,134.83,308.577" fill="#181818" style="stroke:#181818;stroke-width:1;stroke-linejoin:miter;stroke-miterlimit:10;"/><text x="142.713" y="321.518" fill="#000" font-size="13">1</text><text x="312.325" y="321.199" fill="#000" font-size="13" textLength="23.036">0..*</text></g><!--reverse link Constraint to Expression--><g class="link" data-entity-1="ent0002" data-entity-2="ent0003" id="lnk10" data-source-line="31" data-link-type="composition"><path d="M538.487,294.701 C608.647,286.901 696.14,281.297 782.85,290.577 C792.54,291.617 802.76,293.307 812.59,295.257" style="stroke:#181818;stroke-width:1;" fill="none" id="Constraint-backto-Expression" codeLine="31"/><polygon points="526.56,296.027,532.965,299.339,538.487,294.701,532.081,291.388,526.56,296.027" fill="#181818" style="stroke:#181818;stroke-width:1;stroke-linejoin:miter;stroke-miterlimit:10;"/><text x="725.85" y="282.314" fill="#000" font-size="13" textLength="35.109">when</text><text x="534.216" y="307.728" fill="#000" font-size="13" textLength="24.807">0..1</text></g><!--reverse link Constraint to Expression--><g class="link" data-entity-1="ent0002" data-entity-2="ent0003" id="lnk11" data-source-line="32" data-link-type="composition"><path d="M538.369,314.007 C608.429,317.047 695.82,319.237 782.85,315.577 C792.4,315.177 802.55,314.517 812.36,313.757" style="stroke:#181818;stroke-width:1;" fill="none" id="Constraint-backto-Expression-1" codeLine="32"/><polygon points="526.38,313.487,532.201,317.743,538.369,314.007,532.548,309.751,526.38,313.487" fill="#181818" style="stroke:#181818;stroke-width:1;stroke-linejoin:miter;stroke-miterlimit:10;"/><text x="723.85" y="311.644" fill="#000" font-size="13" textLength="39.952">assert</text><text x="534.015" y="326.548" fill="#000" font-size="13">1</text></g><!--reverse link Constraint to Expression--><g class="link" data-entity-1="ent0002" data-entity-2="ent0003" id="lnk12" data-source-line="33" data-link-type="composition"><path d="M538.06,334.192 C608.52,348.792 696.69,359.507 782.85,342.577 C793.41,340.497 804.31,337.077 814.61,333.177" style="stroke:#181818;stroke-width:1;" fill="none" id="Constraint-backto-Expression-2" codeLine="33"/><polygon points="526.31,331.757,531.374,336.891,538.06,334.192,532.997,329.057,526.31,331.757" fill="#181818" style="stroke:#181818;stroke-width:1;stroke-linejoin:miter;stroke-miterlimit:10;"/><text x="704.85" y="338.644" fill="#000" font-size="13" textLength="77.391">soft penalty</text><text x="534.273" y="346.178" fill="#000" font-size="13" textLength="24.807">0..1</text></g><!--reverse link Expression to Literal--><g class="link" data-entity-1="ent0003" data-entity-2="ent0004" id="lnk13" data-source-line="35" data-link-type="extension"><path d="M892.065,268.675 C907.295,244.145 923.32,221.497 951.15,193.577 C986.85,157.747 998.82,150.947 1043.15,126.577 C1067.4,113.247 1095.96,101.657 1119.82,92.997" style="stroke:#181818;stroke-width:1;" fill="none" id="Expression-backto-Literal" codeLine="35"/><polygon points="882.57,283.967,897.162,271.839,886.967,265.51,882.57,283.967" fill="none" style="stroke:#181818;stroke-width:1;stroke-linejoin:miter;stroke-miterlimit:10;"/></g><!--reverse link Expression to Path--><g class="link" data-entity-1="ent0003" data-entity-2="ent0005" id="lnk14" data-source-line="36" data-link-type="extension"><path d="M900.244,270.937 C915.764,253.777 926.59,244.887 951.15,231.577 C993.23,208.767 1045.01,195.197 1087.62,187.247" style="stroke:#181818;stroke-width:1;" fill="none" id="Expression-backto-Path" codeLine="36"/><polygon points="888.17,284.287,904.694,274.962,895.794,266.912,888.17,284.287" fill="none" style="stroke:#181818;stroke-width:1;stroke-linejoin:miter;stroke-miterlimit:10;"/></g><!--reverse link Expression to Unary--><g class="link" data-entity-1="ent0003" data-entity-2="ent0006" id="lnk15" data-source-line="37" data-link-type="extension"><path d="M917.163,274.684 C931.613,265.714 933.83,266.127 951.15,261.577 C1003.05,247.917 1064.14,253.857 1108.54,261.947" style="stroke:#181818;stroke-width:1;" fill="none" id="Expression-backto-Unary" codeLine="37"/><polygon points="901.87,284.177,920.327,279.781,913.999,269.586,901.87,284.177" fill="none" style="stroke:#181818;stroke-width:1;stroke-linejoin:miter;stroke-miterlimit:10;"/></g><!--reverse link Unary to Expression--><g class="link" data-entity-1="ent0006" data-entity-2="ent0003" id="lnk18" data-source-line="40" data-link-type="composition"><path d="M1096.507,284.352 C1041.627,290.172 973.98,297.347 921.62,302.887" style="stroke:#181818;stroke-width:1;" fill="none" id="Unary-backto-Expression" codeLine="40"/><polygon points="1108.44,283.087,1102.052,279.742,1096.507,284.352,1102.895,287.697,1108.44,283.087" fill="#181818" style="stroke:#181818;stroke-width:1;stroke-linejoin:miter;stroke-miterlimit:10;"/><text x="964.65" y="289.604" fill="#000" font-size="13" textLength="35.509">value</text><text x="1092.358" y="296.869" fill="#000" font-size="13">1</text><text x="929.148" y="315.194" fill="#000" font-size="13">1</text></g><!--reverse link Expression to Binary--><g class="link" data-entity-1="ent0003" data-entity-2="ent0007" id="lnk16" data-source-line="38" data-link-type="extension"><path d="M939.181,324.61 C972.901,332.2 1000.35,338.387 1042.78,347.947" style="stroke:#181818;stroke-width:1;" fill="none" id="Expression-backto-Binary" codeLine="38"/><polygon points="921.62,320.657,937.863,330.463,940.498,318.756,921.62,320.657" fill="none" style="stroke:#181818;stroke-width:1;stroke-linejoin:miter;stroke-miterlimit:10;"/></g><!--reverse link Binary to Expression--><g class="link" data-entity-1="ent0007" data-entity-2="ent0003" id="lnk19" data-source-line="41" data-link-type="composition"><path d="M1030.773,381.183 C1000.163,379.283 979.97,375.307 951.15,365.577 C930.75,358.687 910.76,345.267 895.49,333.167" style="stroke:#181818;stroke-width:1;" fill="none" id="Binary-backto-Expression" codeLine="41"/><polygon points="1042.75,381.927,1037.009,377.563,1030.773,381.183,1036.514,385.547,1042.75,381.927" fill="#181818" style="stroke:#181818;stroke-width:1;stroke-linejoin:miter;stroke-miterlimit:10;"/><text x="952.15" y="361.644" fill="#000" font-size="13" textLength="60.779">operands</text><text x="1026.706" y="394.781" fill="#000" font-size="13">1</text><text x="893.184" y="352.669" fill="#000" font-size="13">2</text></g><!--reverse link Expression to Call--><g class="link" data-entity-1="ent0003" data-entity-2="ent0008" id="lnk17" data-source-line="39" data-link-type="extension"><path d="M902.202,346.151 C918.002,362.821 928.16,371.457 951.15,386.577 C993,414.107 1044.64,435.837 1087.24,451.047" style="stroke:#181818;stroke-width:1;" fill="none" id="Expression-backto-Call" codeLine="39"/><polygon points="889.82,333.087,897.848,350.279,906.557,342.024,889.82,333.087" fill="none" style="stroke:#181818;stroke-width:1;stroke-linejoin:miter;stroke-miterlimit:10;"/></g><!--reverse link Call to Expression--><g class="link" data-entity-1="ent0008" data-entity-2="ent0003" id="lnk20" data-source-line="42" data-link-type="composition"><path d="M1075.091,479.749 C1031.441,477.899 990.87,469.847 951.15,443.577 C911.2,417.157 887.14,364.287 875.83,333.127" style="stroke:#181818;stroke-width:1;" fill="none" id="Call-backto-Expression" codeLine="42"/><polygon points="1087.08,480.257,1081.255,476.006,1075.091,479.749,1080.916,483.999,1087.08,480.257" fill="#181818" style="stroke:#181818;stroke-width:1;stroke-linejoin:miter;stroke-miterlimit:10;"/><text x="968.15" y="439.644" fill="#000" font-size="13" textLength="28.336">args</text><text x="1071.272" y="493.325" fill="#000" font-size="13">1</text><text x="841.065" y="352.62" fill="#000" font-size="13" textLength="33.078">1..16</text></g></g></svg>