<svg xmlns="http://www.w3.org/2000/svg" xmlns:xlink="http://www.w3.org/1999/xlink" version="1.1" data-diagram-type="CLASS" style="width:1064px;height:368px;background:#FFFFFF;" width="1064px" height="368px" viewBox="0 0 1064 368" zoomAndPan="magnify" preserveAspectRatio="none" contentStyleType="text/css"><?plantuml 1.2026.7?><defs/><g font-family="sans-serif" lengthAdjust="spacing"><g class="title" data-source-line="1"><text x="380.038" y="22.995" fill="#000" font-size="14" textLength="297.896" font-weight="700">01_simple_seq concrete source model</text></g><g class="entity" data-qualified-name="instance" id="ent0001" data-source-line="6"><rect x="7" y="112.477" width="331.464" height="107.453" fill="#F1F1F1" style="stroke:#181818;stroke-width:0.5;" rx="2.5" ry="2.5"/><text x="152.198" y="123.616" fill="#000" font-size="12" textLength="41.068" font-style="italic">«core»</text><text x="61.388" y="141.441" fill="#000" font-size="14" textLength="222.688">demo_01_simple_seq : Instance</text><line x1="8" y1="146.743" x2="337.464" y2="146.743" style="stroke:#181818;stroke-width:0.5;"/><text x="13" y="163.738" fill="#000" font-size="14" textLength="169.053">profile = qos-binding/v1</text><text x="13" y="180.035" fill="#000" font-size="14" textLength="289.83">application.application = application.json</text><text x="13" y="196.331" fill="#000" font-size="14" textLength="309.887">candidateCatalog.catalog = candidates.json</text><text x="13" y="212.628" fill="#000" font-size="14" textLength="319.464">optimization.optimization = optimization.json</text></g><g class="entity" data-qualified-name="app" id="ent0002" data-source-line="12"><rect x="411.31" y="120.627" width="234.722" height="91.156" fill="#F1F1F1" style="stroke:#181818;stroke-width:0.5;" rx="2.5" ry="2.5"/><text x="501.208" y="131.766" fill="#000" font-size="12" textLength="54.926" font-style="italic">«source»</text><text x="444.138" y="149.591" fill="#000" font-size="14" textLength="169.066">application : Application</text><line x1="412.31" y1="154.893" x2="645.032" y2="154.893" style="stroke:#181818;stroke-width:0.5;"/><text x="417.31" y="171.888" fill="#000" font-size="14" textLength="118.385">tasks = t1, t2, t3</text><text x="417.31" y="188.185" fill="#000" font-size="14" textLength="142.522">metric = latency ms</text><text x="417.31" y="204.481" fill="#000" font-size="14" textLength="222.722">workflow = sequence(t1, t2, t3)</text></g><g class="entity" data-qualified-name="catalog" id="ent0003" data-source-line="17"><rect x="399.46" y="246.477" width="258.422" height="107.453" fill="#F1F1F1" style="stroke:#181818;stroke-width:0.5;" rx="2.5" ry="2.5"/><text x="501.208" y="257.616" fill="#000" font-size="12" textLength="54.926" font-style="italic">«source»</text><text x="433.351" y="275.441" fill="#000" font-size="14" textLength="190.641">catalog : CandidateCatalog</text><line x1="400.46" y1="280.743" x2="656.882" y2="280.743" style="stroke:#181818;stroke-width:0.5;"/><text x="405.46" y="297.738" fill="#000" font-size="14" textLength="246.114">c1a provides service/t1, latency 10</text><text x="405.46" y="314.035" fill="#000" font-size="14" textLength="246.422">c1b provides service/t1, latency 20</text><text x="405.46" y="330.331" fill="#000" font-size="14" textLength="246.114">c2a provides service/t2, latency 15</text><text x="405.46" y="346.628" fill="#000" font-size="14" textLength="237.207">c3a provides service/t3, latency 5</text></g><g class="entity" data-qualified-name="optimization" id="ent0004" data-source-line="23"><rect x="838.89" y="44.627" width="211.083" height="91.156" fill="#F1F1F1" style="stroke:#181818;stroke-width:0.5;" rx="2.5" ry="2.5"/><text x="916.969" y="55.766" fill="#000" font-size="12" textLength="54.926" font-style="italic">«source»</text><text x="849.292" y="73.591" fill="#000" font-size="14" textLength="190.278">optimization : Optimization</text><line x1="839.89" y1="78.893" x2="1048.973" y2="78.893" style="stroke:#181818;stroke-width:0.5;"/><text x="844.89" y="95.888" fill="#000" font-size="14" textLength="125.036">mode = weighted</text><text x="844.89" y="112.185" fill="#000" font-size="14" textLength="199.083">metric = application/latency</text><text x="844.89" y="128.481" fill="#000" font-size="14" textLength="143.22">normalize = 0..1000</text></g><g class="entity" data-qualified-name="eligibility" id="ent0005" data-source-line="28"><rect x="867" y="199.627" width="154.848" height="91.156" fill="#F1F1F1" style="stroke:#181818;stroke-width:0.5;" rx="2.5" ry="2.5"/><text x="931.079" y="210.766" fill="#000" font-size="12" textLength="26.689" font-style="italic">«IR»</text><text x="874" y="228.591" fill="#000" font-size="14" textLength="140.848">eligibility : Eligibility</text><line x1="868" y1="233.893" x2="1020.848" y2="233.893" style="stroke:#181818;stroke-width:0.5;"/><text x="873" y="250.888" fill="#000" font-size="14" textLength="99.654">t1 -> c1a, c1b</text><text x="873" y="267.185" fill="#000" font-size="14" textLength="65.263">t2 -> c2a</text><text x="873" y="283.481" fill="#000" font-size="14" textLength="65.263">t3 -> c3a</text></g><!--reverse link instance to app--><g class="link" data-entity-1="ent0001" data-entity-2="ent0002" id="lnk6" data-source-line="34" data-link-type="composition"><path d="M350.79,166.197 C375.12,166.197 387.75,166.197 410.83,166.197" style="stroke:#181818;stroke-width:1;" fill="none" id="instance-backto-app" codeLine="34"/><polygon points="338.79,166.197,344.79,170.197,350.79,166.197,344.79,162.197,338.79,166.197" fill="#181818" style="stroke:#181818;stroke-width:1;stroke-linejoin:miter;stroke-miterlimit:10;"/></g><!--reverse link instance to catalog--><g class="link" data-entity-1="ent0001" data-entity-2="ent0003" id="lnk7" data-source-line="35" data-link-type="composition"><path d="M328.154,224.662 C355.384,234.962 372.49,241.447 399.23,251.567" style="stroke:#181818;stroke-width:1;" fill="none" id="instance-backto-catalog" codeLine="35"/><polygon points="316.93,220.417,321.127,226.281,328.154,224.662,323.957,218.798,316.93,220.417" fill="#181818" style="stroke:#181818;stroke-width:1;stroke-linejoin:miter;stroke-miterlimit:10;"/></g><!--reverse link instance to optimization--><g class="link" data-entity-1="ent0001" data-entity-2="ent0004" id="lnk8" data-source-line="36" data-link-type="composition"><path d="M350.554,112.578 C370.804,107.758 379.67,106.297 399.46,103.197 C550.66,79.557 728.33,80.627 838.42,84.607" style="stroke:#181818;stroke-width:1;" fill="none" id="instance-backto-optimization" codeLine="36"/><polygon points="338.88,115.357,345.643,117.859,350.554,112.578,343.791,110.076,338.88,115.357" fill="#181818" style="stroke:#181818;stroke-width:1;stroke-linejoin:miter;stroke-miterlimit:10;"/></g><!--link app to eligibility--><g class="link" data-entity-1="ent0002" data-entity-2="ent0005" id="lnk9" data-source-line="37" data-link-type="dependency"><path d="M646.3,188.467 C716.81,201.927 799.789,217.78 861.639,229.58" style="stroke:#181818;stroke-width:1;" fill="none" id="app-to-eligibility" codeLine="37"/><polygon points="866.55,230.517,858.459,224.901,861.639,229.58,856.96,232.759,866.55,230.517" fill="#181818" style="stroke:#181818;stroke-width:1;stroke-linejoin:miter;stroke-miterlimit:10;"/><text x="688.89" y="194.694" fill="#000" font-size="13" textLength="119.057">task requirements</text></g><!--link catalog to eligibility--><g class="link" data-entity-1="ent0003" data-entity-2="ent0005" id="lnk10" data-source-line="38" data-link-type="dependency"><path d="M658.37,285.447 C705.74,279.777 759.79,273.017 808.89,266.197 C827.62,263.597 842.84,261.347 861.71,258.407" style="stroke:#181818;stroke-width:1;" fill="none" id="catalog-to-eligibility" codeLine="38"/><polygon points="866.65,257.637,857.142,255.07,861.71,258.407,858.373,262.975,866.65,257.637" fill="#181818" style="stroke:#181818;stroke-width:1;stroke-linejoin:miter;stroke-miterlimit:10;"/><text x="711.89" y="262.264" fill="#000" font-size="13" textLength="73.899">capabilities</text></g><!--link app to optimization--><g class="link" data-entity-1="ent0002" data-entity-2="ent0004" id="lnk11" data-source-line="39" data-link-type="dependency"><path d="M646.3,144.777 C706.77,133.667 775.112,121.12 833.752,110.35" style="stroke:#181818;stroke-width:1;" fill="none" id="app-to-optimization" codeLine="39"/><polygon points="838.67,109.447,829.095,107.139,833.752,110.35,830.541,115.007,838.67,109.447" fill="#181818" style="stroke:#181818;stroke-width:1;stroke-linejoin:miter;stroke-miterlimit:10;"/><text x="690.89" y="113.024" fill="#000" font-size="13" textLength="115.8">latency metric ref</text></g></g></svg>